<svg xmlns="http://www.w3.org/2000/svg" viewBox="0 0 395.3 374.5"><defs><style>.cls-1{fill:#58595b;}</style></defs><title>Asset 4</title><g id="Layer_2" data-name="Layer 2"><g id="Layer_1-2" data-name="Layer 1"><g id="SFH3Ci.tif"><path class="cls-1" d="M301.62,372c3-1.77,6-3.51,9-5.31,28.1-17.05,38.57-42.26,34.73-74.32-3.56-29.73-16-55.81-32.49-80.21-29.67-43.83-68.12-78.65-111.59-108.3-2-1.34-3.48-1.8-5.73-.2-39,27.71-76,57.44-104.87,96.24-17.62,23.74-32.27,48.9-38.56,78.21-2.75,12.8-4,25.75-2.09,38.72,2.81,19.53,13.33,34.55,28.94,46.12,5.56,4.11,11.57,7.61,17.27,11.56-30-9.56-57.87-22.77-77.83-48.49C3.82,307.24-1.11,285.64.2,262.16c2.3-41.37,18.1-77.77,40.5-111.79C71.77,103.2,111.43,64.25,156.19,30.25c12.87-9.77,26-19.16,39-28.82,2.12-1.58,3.74-2,6.17-.4,59.53,40.46,112,88.14,152.07,148.51,18.08,27.26,32.29,56.31,38.57,88.73,3.48,18,4.82,36.12,1.07,54.11-4.82,23.09-18.23,40.72-37.27,54.29C339.35,358.37,321.15,366.36,301.62,372Z"/><path class="cls-1" d="M197.24,325.59c-19.73-13.49-36.81-29-47.6-50.16a73.9,73.9,0,0,1-6.27-19.33c-2.43-12.61,2.31-22.05,13.41-28.61,9.82-5.81,20.71-8.13,31.9-9.15,14.6-1.33,29-.19,42.69,5.46,17.8,7.34,24.29,19.78,19.23,38.32a79.78,79.78,0,0,1-8.72,20C230.88,300.32,214.85,313.55,197.24,325.59Z"/></g></g></g></svg>