<svg xmlns="http://www.w3.org/2000/svg" viewBox="0 0 196.12 39.98"><defs><style>.cls-1,.cls-2{fill:#58595b;}.cls-2{fill-rule:evenodd;}</style></defs><title>Asset 2</title><g id="Layer_2" data-name="Layer 2"><g id="Layer_1-2" data-name="Layer 1"><path class="cls-1" d="M78.05,1.42a4.49,4.49,0,0,0-1.57,3.5A4.5,4.5,0,0,0,78,8.42,11.62,11.62,0,0,0,80.84,10l1.51.73a3.69,3.69,0,0,1,.7.46,2.08,2.08,0,0,1,.75,1.66,1.82,1.82,0,0,1-.55,1.55,2.73,2.73,0,0,1-1.82.53,2.27,2.27,0,0,1-2.51-1.88l-.34-1.25-3.23,1.1.34,1.13a5.54,5.54,0,0,0,5.74,4.22,7.07,7.07,0,0,0,2.4-.38,4.9,4.9,0,0,0,3.3-5A5.33,5.33,0,0,0,85.51,9a7.84,7.84,0,0,0-1.42-1.08,18.28,18.28,0,0,0-1.89-1,10.67,10.67,0,0,1-1.9-1,1.24,1.24,0,0,1-.5-1,1.26,1.26,0,0,1,.48-1.06,2,2,0,0,1,1.34-.43,2.51,2.51,0,0,1,1.32.29,1.79,1.79,0,0,1,.65.66l.55.91,3-1.33-.65-1.17A5.22,5.22,0,0,0,81.62.13,5.29,5.29,0,0,0,78.05,1.42Z"/><path class="cls-1" d="M102.59.22V13A1.57,1.57,0,0,1,102,14.4a2.72,2.72,0,0,1-1.76.55,2.78,2.78,0,0,1-1.77-.53A1.59,1.59,0,0,1,97.81,13V.22h-3.3V13A4.91,4.91,0,0,0,96.26,17a6.12,6.12,0,0,0,3.93,1.3A5.94,5.94,0,0,0,104.11,17a5,5,0,0,0,1.8-3.95V.22Z"/><path class="cls-1" d="M142.07,2.61a8.91,8.91,0,0,0-2.59,6.55,9.35,9.35,0,0,0,16,6.43,8.63,8.63,0,0,0,2.39-6.16V8.21h-8.52v3.32h4.77A5.25,5.25,0,0,1,153,13.21a5.57,5.57,0,0,1-4.37,1.8,5.79,5.79,0,0,1-4.24-1.64,5.67,5.67,0,0,1-1.62-4.21,6,6,0,0,1,10.71-3.5l.73,1,2.67-2-.73-1a9.55,9.55,0,0,0-14.09-1.06Z"/><path class="cls-1" d="M162.88,2.59a8.9,8.9,0,0,0-2.57,6.57,8.82,8.82,0,0,0,9.17,9.17,9,9,0,0,0,6.6-2.58,8.94,8.94,0,0,0,2.59-6.59,9,9,0,0,0-2.59-6.6A9.1,9.1,0,0,0,169.48,0,8.94,8.94,0,0,0,162.88,2.59Zm2.37,10.78h0a5.62,5.62,0,0,1-1.62-4.21,5.67,5.67,0,0,1,1.64-4.22,5.6,5.6,0,0,1,4.21-1.64,5.57,5.57,0,0,1,5.86,5.86,5.7,5.7,0,0,1-1.61,4.26A5.79,5.79,0,0,1,169.48,15,5.64,5.64,0,0,1,165.25,13.37Z"/><path class="cls-1" d="M181.6.22v17.9H188a7.5,7.5,0,0,0,6-2.78,9.47,9.47,0,0,0,2.11-6.2A9.29,9.29,0,0,0,194,3a7.48,7.48,0,0,0-6-2.77ZM188,3.52a4.23,4.23,0,0,1,3.49,1.63,6,6,0,0,1,1.31,4,5.72,5.72,0,0,1-1.53,4.24A4.42,4.42,0,0,1,188,14.79H184.9V3.52Z"/><path class="cls-1" d="M128.31.22H125V11.56L115.31.22h-1.87v17.9h3.3V7l9.57,11.08h2Z"/><path class="cls-2" d="M28.33,34.65a16.62,16.62,0,0,1-3.71-3.3c-1.06-1.29-2.18-3.09-2-5a2.51,2.51,0,0,1,.44-1.1c1.81-2.5,9.56-2.63,10.8.59a2.73,2.73,0,0,1,.17.82A7.46,7.46,0,0,1,32,31.46,19.29,19.29,0,0,1,28.33,34.65Zm-1.44-7.56A2.63,2.63,0,0,0,26.16,29c.24,1.52,3.87,1.44,4.34.17a2.54,2.54,0,0,0-.66-2.06,6.4,6.4,0,0,0-1.51-1.31A6,6,0,0,0,26.89,27.09Z"/><path class="cls-2" d="M45.52,0q-1.41,3.45-2.68,7a74.85,74.85,0,0,1-8.22,3.89,58.85,58.85,0,0,0,7.25-.52c-.74,1.88-1.44,3.81-2.13,5.74l-2.34.35c.55.86,1.49,1.81,2,2.71-1.7,0-3.43-.12-4.95-.17a10,10,0,0,1,3.16,1.75c.24.2.66.73.86.76a5.87,5.87,0,0,0,1.17-.31c5.6-1.52,11.61-3.12,17.12-4.61-1.94,2-4,4.17-6,6.3a5,5,0,0,1-.89.85,7.44,7.44,0,0,1-1.2.45c-1.16.45-2.31.89-3.48,1.38,3,.61,6,1.15,8.91,1.78-2.66,1-5.38,1.92-8.15,2.93a6.26,6.26,0,0,1-1.13.41c-.83.08-1.57-.24-2.38-.21,1.92,2.13,4.31,4.26,6.23,6.4-2.66-.73-5.55-1.4-8.32-2.1a8.25,8.25,0,0,1-1.17-.31,6.6,6.6,0,0,1-1.31-1.07c-.47-.38-.9-.71-1.34-1A30.82,30.82,0,0,1,28.23,40a33.21,33.21,0,0,1-8.08-7.6c-.4.35-.85.7-1.31,1.07a5.77,5.77,0,0,1-1.31,1,9.1,9.1,0,0,1-1.2.31c-2.67.68-5.67,1.41-8.32,2.1,2-2,4-4,6-6,.11-.11.32-.27.28-.38-.8,0-1.52.28-2.34.21a5.69,5.69,0,0,1-1.2-.41c-2.7-1-5.47-2-8.12-3,3-.58,6-1.13,8.94-1.79-1.21-.45-2.33-.87-3.54-1.34a8.12,8.12,0,0,1-1.17-.45A5.33,5.33,0,0,1,6,22.86c-2-2-4.06-4.25-5.95-6.26,6,1.68,12.18,3.25,18.22,4.92a10.83,10.83,0,0,1,5.19-3c-2.25-.28-5.84-.66-7.63.31a1.1,1.1,0,0,0-.48.52,4.06,4.06,0,0,1-1.69-1.72,5.06,5.06,0,0,1-.79-2.61,5.58,5.58,0,0,1,2.48-4.33,15.79,15.79,0,0,1,4.33-2.48c1.65-.62,3.46-1.11,5.23-1.58C30.12,5.27,35.74,3.94,40.7,2.1A27.65,27.65,0,0,0,45.48,0ZM35.93,29.57a8.73,8.73,0,0,0,1-4.2c-.13-2.07-1.68-3.12-3.24-3.81a15,15,0,0,0-11.17.13,4.45,4.45,0,0,0-2.78,3.37,8.36,8.36,0,0,0,.93,4.3c1.66,3.55,4.7,6.12,7.59,8.14C31.24,35.44,34.22,33,35.93,29.57Z"/><path class="cls-1" d="M79.07,32.65h-2.6v1.9H79v1.07H76.47v3.43H75.32V31.58h3.75Z"/><path class="cls-1" d="M88.45,32.65h-3v1.9h2.89v1.07H85.47V38h3v1.07H84.32V31.58h4.13Z"/><path class="cls-1" d="M97.39,33.23a1.3,1.3,0,0,0-.34-.47,1.2,1.2,0,0,0-.81-.27.93.93,0,0,0-1,.9c0,.23.08.62.81.91l.75.3c1.38.56,1.76,1.35,1.76,2.2a2.31,2.31,0,0,1-2.41,2.4,2.19,2.19,0,0,1-1.76-.75A2.36,2.36,0,0,1,93.71,37l1.13-.25a1.71,1.71,0,0,0,.31,1,1.25,1.25,0,0,0,2.21-.81,1.4,1.4,0,0,0-1.07-1.28l-.72-.3A2.11,2.11,0,0,1,94,33.41a2,2,0,0,1,2.19-2,2.19,2.19,0,0,1,1.5.5,2.46,2.46,0,0,1,.58.76Z"/><path class="cls-1" d="M106.62,32.65v6.4h-1.14v-6.4h-1.71V31.58h4.57v1.07Z"/><path class="cls-1" d="M114.74,31.58v7.47H113.6V31.58Z"/><path class="cls-1" d="M121.23,31.58l2.09,5.21,2.08-5.21h1.24l-3.32,8-3.32-8Z"/><path class="cls-1" d="M137.14,37.25H134l-.82,1.8h-1.24l3.73-7.91,3.54,7.91h-1.23Zm-.46-1.08-1.11-2.53-1.15,2.53Z"/><path class="cls-1" d="M145.56,31.58V38h2.2v1.07h-3.34V31.58Z"/><path class="cls-1" d="M165.34,39.05h-5l2.59-3.14c.26-.31.65-.8.9-1.16a1.89,1.89,0,0,0,.39-1.08A1.16,1.16,0,0,0,163,32.46a1.34,1.34,0,0,0-1.33,1.36h-1.1a2.76,2.76,0,0,1,.63-1.64,2.26,2.26,0,0,1,1.75-.73,2.23,2.23,0,0,1,2.41,2.26,2.67,2.67,0,0,1-.54,1.56,12.94,12.94,0,0,1-1.06,1.35L162.54,38h2.8Z"/><path class="cls-1" d="M172.22,38.37a4.56,4.56,0,0,1-.95-3,4.62,4.62,0,0,1,.95-3.06,2.18,2.18,0,0,1,3.39,0,4.62,4.62,0,0,1,.95,3.06,4.56,4.56,0,0,1-.95,3,2.18,2.18,0,0,1-3.39,0Zm.69-5.29a4.26,4.26,0,0,0-.52,2.23,4.31,4.31,0,0,0,.52,2.24,1.12,1.12,0,0,0,2,0,4.31,4.31,0,0,0,.52-2.24,4.26,4.26,0,0,0-.52-2.23,1.12,1.12,0,0,0-2,0Z"/><path class="cls-1" d="M183.8,32.63h-1.3l.62-1.05h1.82v7.47H183.8Z"/><path class="cls-1" d="M192,38.7l1.76-2.26a2,2,0,0,1-.4.05,2.41,2.41,0,0,1-1.75-.7,2.33,2.33,0,0,1-.69-1.7,2.73,2.73,0,0,1,.74-1.88,2.86,2.86,0,0,1,3.86,0,2.34,2.34,0,0,1,.65,1.7,2.91,2.91,0,0,1-.36,1.42,7.06,7.06,0,0,1-.91,1.33l-2.07,2.67Zm2.61-3.64A1.65,1.65,0,0,0,195,34a1.48,1.48,0,0,0-.44-1.06,1.57,1.57,0,0,0-1.06-.43,1.6,1.6,0,0,0-1.07.43,1.63,1.63,0,0,0,0,2.21,1.61,1.61,0,0,0,1.06.41A1.5,1.5,0,0,0,194.56,35.06Z"/></g></g></svg>